<?xml version="1.0" standalone="no"?>
<!DOCTYPE svg PUBLIC "-//W3C//DTD SVG 20010904//EN"
 "http://www.w3.org/TR/2001/REC-SVG-20010904/DTD/svg10.dtd">
<svg version="1.0" xmlns="http://www.w3.org/2000/svg"
 width="700.000000pt" height="700.000000pt" viewBox="0 0 700.000000 700.000000"
 preserveAspectRatio="xMidYMid meet">
<metadata>
Created by potrace 1.14, written by Peter Selinger 2001-2017
</metadata>
<g transform="translate(0.000000,700.000000) scale(0.100000,-0.100000)"
fill="#000000" stroke="none">
<path d="M3278 6996 c-1 -2 -39 -6 -83 -10 -396 -30 -841 -152 -1210 -332
-180 -87 -448 -247 -555 -331 -8 -6 -51 -40 -95 -74 -400 -311 -756 -752 -980
-1214 -109 -224 -219 -528 -251 -688 -2 -10 -6 -27 -9 -37 -3 -10 -8 -29 -10
-42 -3 -13 -11 -57 -20 -98 -22 -115 -30 -160 -41 -255 -26 -230 -26 -667 1
-826 2 -13 6 -46 9 -74 6 -53 11 -80 26 -160 6 -27 12 -59 14 -71 14 -70 59
-243 86 -329 l33 -100 27 70 c47 123 167 342 214 391 6 6 18 22 26 34 50 76
518 547 660 665 86 71 183 139 250 174 14 7 50 51 80 98 30 46 62 92 70 101 8
9 27 33 41 52 15 19 35 45 45 56 11 12 39 46 64 75 55 67 705 717 855 856 126
116 126 116 260 232 55 47 102 88 105 91 3 3 28 24 55 45 28 22 52 42 55 46
10 11 228 177 310 236 466 334 811 477 944 389 46 -30 60 -62 59 -139 0 -210
-234 -631 -607 -1097 -84 -105 -249 -303 -262 -315 -6 -5 -53 -57 -105 -115
-141 -158 -448 -471 -600 -612 -64 -59 -193 -174 -256 -229 -34 -29 -60 -56
-58 -59 2 -4 35 -20 72 -35 379 -161 717 -502 877 -887 l28 -66 81 91 c139
159 282 311 473 501 614 614 1267 1107 1670 1261 83 32 207 54 251 44 83 -17
117 -65 116 -164 -1 -187 -172 -518 -482 -934 -103 -137 -224 -289 -276 -345
-6 -6 -30 -36 -55 -66 -25 -30 -50 -59 -56 -65 -7 -5 -33 -35 -59 -65 -150
-174 -878 -916 -1017 -1037 -91 -79 -180 -147 -274 -211 -48 -33 -71 -58 -102
-110 -23 -38 -71 -107 -108 -153 -73 -92 -536 -558 -649 -655 -133 -113 -314
-222 -470 -282 -80 -30 -80 -30 -50 -42 135 -52 492 -133 675 -154 249 -29
655 -29 860 0 19 3 50 7 68 9 17 3 49 7 70 10 20 3 48 8 62 11 14 3 36 8 50
10 167 28 563 148 642 194 10 5 23 10 28 10 6 0 75 31 153 69 547 265 983 629
1336 1116 98 135 102 141 202 314 114 198 202 395 283 634 32 95 89 304 102
377 2 14 7 36 10 50 3 14 7 37 9 52 2 15 8 53 14 85 9 52 13 83 28 213 8 70
10 517 3 595 -15 154 -21 210 -25 225 -2 8 -7 35 -10 60 -15 117 -78 375 -125
520 -206 624 -585 1187 -1075 1595 -32 28 -70 59 -83 70 -120 103 -401 281
-597 380 -314 159 -717 290 -1015 330 -19 3 -46 7 -60 10 -13 2 -52 7 -86 11
-33 3 -74 8 -90 10 -32 5 -540 14 -546 10z"/>
<path d="M1490 2298 c-13 -7 -34 -28 -46 -45 -19 -28 -21 -44 -16 -105 3 -27
59 -73 97 -79 43 -7 106 20 124 54 29 55 20 116 -24 157 -29 27 -99 37 -135
18z"/>
<path d="M1252 1720 c-101 -45 -105 -164 -15 -367 26 -58 32 -64 89 -92 84
-40 187 -71 239 -71 62 0 97 16 125 57 55 80 18 208 -93 324 -134 140 -251
191 -345 149z"/>
<path d="M2143 1645 c-59 -25 -86 -100 -58 -159 28 -59 81 -83 144 -66 107 28
118 183 16 226 -42 17 -61 17 -102 -1z"/>
</g>
</svg>
